<?xml version="1.0" encoding="utf-8"?>
<!-- Generator: Adobe Illustrator 25.2.1, SVG Export Plug-In . SVG Version: 6.00 Build 0)  -->
<svg version="1.1" id="Layer_1" xmlns:serif="http://www.serif.com/"
	 xmlns="http://www.w3.org/2000/svg" xmlns:xlink="http://www.w3.org/1999/xlink" x="0px" y="0px" viewBox="0 0 456 456"
	 style="enable-background:new 0 0 456 456;" xml:space="preserve">
<style type="text/css">
	.st0{fill:#512BD4;}
	.st1{clip-path:url(#SVGID_2_);}
	.st2{clip-path:url(#SVGID_4_);fill:#FDC211;}
	.st3{clip-path:url(#SVGID_4_);fill:#1B1608;}
	.st4{clip-path:url(#SVGID_4_);fill:#191409;}
	.st5{clip-path:url(#SVGID_4_);fill:#171309;}
	.st6{clip-path:url(#SVGID_4_);fill:#1D1806;}
	.st7{clip-path:url(#SVGID_4_);fill:#201B0D;}
	.st8{clip-path:url(#SVGID_4_);fill:#191508;}
	.st9{clip-path:url(#SVGID_4_);fill:#19150B;}
	.st10{clip-path:url(#SVGID_4_);fill:#161206;}
	.st11{clip-path:url(#SVGID_4_);fill:#1A1506;}
	.st12{clip-path:url(#SVGID_4_);fill:#F0EBE1;}
	.st13{clip-path:url(#SVGID_4_);fill:#F8F4EE;}
	.st14{clip-path:url(#SVGID_4_);fill:#F6F0E6;}
	.st15{clip-path:url(#SVGID_4_);fill:#F3EEE5;}
	.st16{clip-path:url(#SVGID_4_);fill:#F5DFEC;}
	.st17{clip-path:url(#SVGID_4_);fill:#647BBC;}
	.st18{clip-path:url(#SVGID_4_);fill:#F6DEEC;}
	.st19{clip-path:url(#SVGID_4_);fill:#EE2642;}
	.st20{clip-path:url(#SVGID_4_);fill:#FDFEFE;}
	.st21{clip-path:url(#SVGID_4_);fill:#657CBD;}
	.st22{clip-path:url(#SVGID_4_);fill:#E5E7F4;}
	.st23{clip-path:url(#SVGID_4_);fill:#E5E6F4;}
	.st24{clip-path:url(#SVGID_4_);fill:#FCB416;}
	.st25{clip-path:url(#SVGID_4_);fill:#11142B;}
	.st26{clip-path:url(#SVGID_4_);fill:#10132B;}
</style>
<circle class="st0" cx="228" cy="228" r="210"/>
<g>
	<g>
		<defs>
			<rect id="SVGID_1_" x="76" y="71" width="315" height="314"/>
		</defs>
		<clipPath id="SVGID_2_">
			<use xlink:href="#SVGID_1_"  style="overflow:visible;"/>
		</clipPath>
		<g class="st1">
			<defs>
				<rect id="SVGID_3_" x="76" y="71" width="315" height="314"/>
			</defs>
			<clipPath id="SVGID_4_">
				<use xlink:href="#SVGID_3_"  style="overflow:visible;"/>
			</clipPath>
			<path class="st2" d="M295,133.1c2.7-1.5,5.4-3,8.2-4.3c2.4-1.2,4.7-1,6.6,0.9c0.9,0.9,1.6,1.2,3,0.2c2.3-1.7,4.3-1.3,5.7,1
				c0.9,1.5,1.3,3.2,1.6,4.8c0.8,4.6,1.3,9.3,1.9,14c0.1,1,0.1,1.7-1.4,2.1c-17,4-34.2,7-51.5,9.2c-1.8,0.2-2.3-0.2-2.1-1.8
				c0.5-3,2.1-5.6,4.1-8c2-2.4,4.5-4.2,6.7-6.4c2.7,0,3.5,2.1,5.2,3.5c-0.4-2.2-3-2.9-3.6-4.7c0.3-0.8,1-1.3,2-1.5
				c2.7,0.1,3.7,2.3,5.6,4c-0.6-2.5-3.2-3.2-3.9-5c0.2-1,1.1-1.5,2.1-1.9c2.8,0.1,3.6,2.4,5.4,3.9c-0.7-2.1-3.1-3-3.6-5
				c0.3-0.8,1-1.3,2-1.5c1.7,0,2.5,1.2,3.5,2.1c0.8,0.7,1.3,1.6,2.8,2.4c-1.1-1.5-2-2.3-2.9-3.2c-0.7-0.7-1.6-1.2-1.5-2.3
				c0.5-0.7,1.2-1.1,2.1-1.4c3.1,0.3,4,3,6.2,4.9c-0.6-1.8-1.7-2.8-2.7-3.8C295.9,134.5,294.8,134.1,295,133.1"/>
			<path class="st2" d="M276.3,143.6c-4.2,3.1-7.9,6.6-10.2,11c-0.5,0.9-1.1,1.3-2.2,1.4c-5.3,0.7-10.6,1.4-15.8,2.2
				c-1.7,0.3-1.9-0.4-1.8-1.6c0.4-3.8,2.7-6.7,5.3-9.5c1.7-1.8,3.6-3.5,5.4-5.2c1.5-0.5,2.1,0.6,2.9,1.3c1,0.7,1.5,1.8,2.6,2.6
				c-0.5-2.4-3.4-3-3.9-5.1c0.6-0.5,1.2-1,1.8-1.4c1.1-0.7,1.7,0.2,2.3,0.6c1.3,0.9,2.2,2.1,3.4,3.5c-0.6-2.4-3.1-3.3-3.8-5.2
				c0.7-0.5,1.4-1,2.2-1.5c2.7,0.1,3.6,2.4,5.4,3.6c-0.5-1.3-1.4-2.2-2.4-3.1c-0.6-0.5-1.6-0.7-1.3-1.7c0.8-0.5,1.5-1,2.3-1.5
				c1.6-0.2,2.1,1.1,3,1.8c1,0.7,1.6,1.7,2.7,2.4c-0.6-1.3-1.8-2.2-2.7-3.3c-0.5-0.6-1.5-0.9-1.1-1.9l2.2-1.3
				c1.9-0.4,2.3,1.2,3.4,1.9c0.9,0.6,1.4,1.5,2.2,2.2c-0.6-1.2-1.5-2.3-2.5-3.3c-0.5-0.5-1.4-0.9-1.1-1.9c2.6-1.6,5.2-3.2,8.1-4.5
				c2.3-1,4.4-1,6.2,0.6c1.2,1.1,2.3,1.3,3.8,0.1c1.3-1,2.8-0.9,4.1,0c1.8,1.2,1.7,2.1-0.3,3.2c-1.1,0.6-2.2,1.3-3.2,2
				c-0.3,0.4-0.7,0.8-1.2,1.1c-0.8,0.5-1.5,1-2.4,1.3c-0.6,0.2-1.2,0.6-1.6,1.1c-0.7,0.7-1.6,1.2-2.3,2c-0.6,0.3-1.2,0.5-1.7,1
				c-0.9,0.5-1.7,1.2-2.6,1.8c-0.4,0.2-0.7,0.5-1.1,0.7c-0.8,0.5-1.5,1.2-2.3,1.7C277.5,143,277,143.5,276.3,143.6"/>
			<path class="st3" d="M291.6,132.7c0.4-0.5,0.9-0.8,1.6-0.8c0.6,0.4,1.3,0.8,1.9,1.2c1.6,1.4,3.3,2.8,4.4,4.6
				c0.4,0.6,1.4,1.3,0.2,1.9c-0.9,0.5-1.3-0.4-1.7-0.9c-1.3-1.8-2.6-3.5-4.8-4.5C292,134.2,291.3,133.9,291.6,132.7"/>
			<path class="st4" d="M270.4,132.8c1.4,1.4,2.8,2.8,4.2,4.2c0.5,0.5,1.5,1.2,0.6,1.9c-1,0.8-1.4-0.3-1.9-0.8
				c-1.5-1.5-2.9-3.1-4.7-4.4c-0.2-0.2-0.3-0.3-0.5-0.5c-0.5-0.5-1.4-0.9-0.5-1.7c0.7-0.6,1.2,0,1.7,0.4
				C269.6,132.2,270,132.5,270.4,132.8"/>
			<path class="st5" d="M274.6,130.4c1.4,1.5,3.1,2.7,4.2,4.5c0.4,0.6,1.3,1.4,0.2,2c-0.9,0.5-1.3-0.4-1.7-1
				c-1.3-1.7-2.6-3.3-4.6-4.4c-0.3-0.2-0.5-0.4-0.7-0.6c-0.4-0.3-1.1-0.6-0.6-1.2c0.5-0.7,1.2-0.5,1.8-0.1
				C273.5,129.8,274.1,130.1,274.6,130.4"/>
			<path class="st6" d="M266.3,135.2c1.6,1.2,3.2,2.4,4.3,4.1c0.4,0.6,1,1.3,0.1,1.8c-0.8,0.5-1.2-0.3-1.6-0.8
				c-1.2-1.6-2.5-3-4.5-3.9c-0.6-0.5-2-0.9-1.1-1.8C264.5,133.6,265.3,135,266.3,135.2"/>
			<path class="st7" d="M258.7,140.5c1.6,1.3,3.3,2.4,4.3,4.1c0.4,0.6,1.4,1.3,0.2,2c-1,0.5-1.3-0.4-1.7-1c-1.2-1.6-2.5-3-4.6-3.8
				c-0.5-0.5-1.9-0.7-1-1.6C257,139.1,257.8,140.4,258.7,140.5"/>
			<path class="st8" d="M276.3,143.6c0.2-0.7,0.6-1.1,1.4-1.1c1-0.1,1.6,0.3,2,1.1c1.6,1.3,3.3,2.6,4.3,4.3c0.3,0.4,0.7,1-0.1,1.4
				c-0.6,0.3-1.1,0-1.5-0.5c-1.2-1.6-2.5-3.2-4.6-4L276.3,143.6z"/>
			<path class="st9" d="M262.4,138c1.6,1.3,3.3,2.5,4.4,4.3c0.3,0.5,0.9,1.1,0.1,1.6c-0.8,0.5-1.3-0.1-1.6-0.6
				c-1.2-1.7-2.6-3.3-4.8-4.1c-0.7-0.4-1.6-1-0.7-1.7C260.7,136.6,261.5,137.8,262.4,138"/>
			<path class="st10" d="M287.7,135.2c0.2-0.7,0.5-1.2,1.5-1.1c1,0.1,1.6,0.7,1.9,1.5c1.5,1.6,3.1,3.2,4.6,4.8
				c0.4,0.4,0.8,0.9,0.1,1.4c-0.6,0.5-1.1,0.1-1.5-0.3c-1.6-1.7-3-3.5-5-4.7C288.4,136.5,287.7,136.1,287.7,135.2"/>
			<path class="st11" d="M280,140.7c0.1-0.5,0.6-0.7,1-0.8c1.1-0.2,1.8,0.3,2.3,1.1c1.6,1.2,3.1,2.5,4.2,4.2
				c0.4,0.6,0.8,1.1,0.1,1.6c-0.8,0.6-1.2-0.2-1.6-0.6c-1.2-1.6-2.4-3.1-4.4-3.9C280.5,142.1,279.8,141.8,280,140.7"/>
			<path class="st10" d="M283.8,137.9c0.2-0.7,0.6-0.9,1.4-0.8c1-0.2,1.7,0.1,2,1c1.5,1.3,3.1,2.5,4.1,4.2c0.3,0.5,0.9,1.1,0,1.5
				c-0.8,0.4-1.2-0.2-1.6-0.7c-1.1-1.6-2.4-3.1-4.4-3.9C284.4,139.2,283.6,138.9,283.8,137.9"/>
			<path class="st12" d="M283.8,137.9c0.2,0.7,1.1,0.9,1.5,1.4c-0.7,0.5-1.4,1.1-2,1.6c-0.8-0.4-1.5-0.7-2.3-1.1
				C281.9,139.2,282.9,138.6,283.8,137.9"/>
			<path class="st13" d="M287.2,138.1c-0.7-0.3-1.3-0.7-2-1c0.6-0.9,1.6-1.4,2.5-2c0.5,0.5,1,1,1.5,1.5
				C288.5,137.2,287.8,137.7,287.2,138.1"/>
			<path class="st14" d="M291.1,135.6c-0.6-0.5-1.3-1-1.9-1.5l2.4-1.4c0.5,0.5,1,1,1.5,1.5L291.1,135.6z"/>
			<path class="st15" d="M280,140.7c0.2,0.8,1.1,0.9,1.6,1.5c-0.6,0.5-1.3,0.9-1.9,1.4c-0.7-0.4-1.3-0.7-2-1.1
				C278.4,141.9,279.2,141.3,280,140.7"/>
			<path class="st16" d="M232.7,143.2c-0.2-0.1-0.4-0.4-0.6-0.4c-5.3,0-10.7,0-16.2,0c2.1,2.5,4.3,5.2,6.6,7.8
				c2.3,2.8,4.6,5.5,6.9,8.3c0.9,1.1,0.6,1.7-1,2.3c-9.7,3.5-19.3,7-29.1,10.3c-3.3,1.1-6.5,2.3-9.7,3.5c-1.7,0.7-2.5,0.6-3.3-0.9
				c-2.8-5.6-5.9-11.1-8.8-16.6c-0.2-0.4-0.1-0.9-0.8-1c-0.8-0.1-0.9,0.5-1.2,0.9c-5.4,5.5-10.6,11.1-15.5,16.9
				c-0.9,1-1.9,1.2-3.3,0.9c-0.7-0.2-1.3-0.4-2-0.5c-2.5-0.4-3.6-1.3-3-3.4c1.7-6.3,4.7-12.3,8.4-18.1c2.9-4.6,5.9-9.1,10.2-13.1
				c2.1-1.9,4.5-3.6,7.1-5.2c3.3,1.6,6.5,3.4,10,4.7c2.8,1.1,3.3,0.9,3.5-1.4c0.3-2.8,0.5-5.6,1.2-8.3c4.5-1.3,9.1-1.2,13.8-1.2
				c0.7,1.1-0.5,2-0.5,3.1c0.7-0.9,0.2-2.3,2.1-2.7c7.6,0.3,14.8,1.7,22.1,3.1c1,0.2,2,0.5,3.1,0.4c3.6,0.2,6.7,1.5,10,2.3
				c1.9,0.7,3.8,1.4,5.7,2.1c1.6,0.6,2.1,1.6,1.7,2.9c-0.2,0.6-0.5,1.2-0.8,1.8c-1.1,2.3-1.3,2.4-4.5,2.2c-1,0-1.9,0-2.9,0
				C238.8,143.8,235.7,143.9,232.7,143.2"/>
			<path class="st17" d="M207.5,129c-0.9,1-1.1,2.1-1.5,3.2c-0.1,0.4-0.3,0.9-0.9,0.8c-0.9-0.1-0.7-0.6-0.5-1.1
				c0.4-1.1,0.9-2.2,1.3-3.3c0.2-0.2,0.3-0.5,0.5-0.7c2.8-2.8,3.8-5.6,0.5-8.6c-0.5-0.4-0.3-0.9,0-1.4c2.7-3.9,5.4-7.8,8-11.8
				c0.8-1.2,1.8-1.5,3.4-1c2.7,0.8,5.4,1.7,8.1,2.5c1.3,0.4,1.5,0.9,0.9,1.8c-2.9,4.5-5.7,9-8.5,13.6c-0.4,0.7-1.1,0.8-1.9,0.7
				C211.4,123.2,208.8,125.5,207.5,129"/>
			<path class="st18" d="M177.7,134.5c2-1.5,4.1-1.4,6.4-0.4c1.5,0.7,2.7,1.2,2.8-0.9c0.1-1.8,1.1-3.4,4.3-3.3c0.2,2.7-0.4,5.4-1,8
				c-0.3,1.6-1.1,1.9-3.1,1.1C183.7,137.8,180.6,136.3,177.7,134.5"/>
			<path class="st19" d="M177.7,134.5c1.7-0.1,2.6,1,3.8,1.6c2.4,1.1,4.8,2.3,7.8,3.4c0.4-2.7,0.8-5.2,1.1-7.7
				c0.1-0.6,0.1-1.3,0.7-1.8c0.3,0,0.6,0,0.9,0c0.9,0.8,0.2,1.8,0.1,2.6c-0.3,2.5-0.7,5-1,7.5c-0.1,0.7-0.4,1.4-1.6,1
				c-4.4-1.7-9.1-3.1-12.3-6.1C177.4,134.7,177.6,134.6,177.7,134.5"/>
			<path class="st20" d="M212.8,122.8c-1.4,0.3-2-0.1-2.6-0.8c-1.8-2-2.3-3.9-0.4-6.2c2.4-2.8,4.2-5.8,6.2-8.8
				c0.6-0.9,1.2-1.1,2.5-0.7c2,0.7,4.1,1.3,6.1,1.8c1.4,0.4,1.4,0.9,0.8,1.7c-2.1,3.2-4.3,6.4-6,9.7
				C218.1,122.1,216.1,123.2,212.8,122.8"/>
			<path class="st21" d="M216.1,118.2c-1.4-0.4-1.8,0.4-2.2,1.1c-0.2,0.4-0.4,0.8-1.1,0.6c-0.7-0.2-0.5-0.7-0.2-1
				c0.8-1,0.9-1.9-0.8-2.5c-0.4-0.1-0.6-0.5-0.3-0.8c0.3-0.4,0.8-0.2,1.1,0c0.8,0.4,1.6,0.9,2.4-0.1c0.5-0.7,0.9-1.2-0.2-1.8
				c-1-0.6-1.1-1.5-0.6-2.3c0.6-0.9,1.7-1.3,3-1.4c0.6,0,1.1,0.4,1.7-0.1c0.5-0.4,0.3-1.4,1.5-1c0.9,0.3,0,0.9-0.1,1.4
				c0,0.4,0.2,0.7,0.5,1c0.7,0.6,0.5,0.9-0.6,0.9c-1.9,0.1-2.6,1.1-1.7,2.5C220,116.9,219.1,118.2,216.1,118.2"/>
			<path class="st22" d="M218,111.3c-0.4,0.8-0.5,1.8-1.7,2c-0.4,0.1-1.1-0.5-1-1C215.6,111.2,216.6,111,218,111.3"/>
			<path class="st23" d="M216.8,115c1.1,0.8,1.3,1.5,0.4,2.1c-0.4,0.2-1,0.2-1.2-0.1C215.4,116.3,216.5,115.9,216.8,115"/>
			<path class="st24" d="M159.9,323.2c13.8,0,24.9,11,24.9,24.7c0,13.9-11.1,25.1-25,25.1c-13.8,0-25.1-11.1-25.1-24.6
				C134.6,334.3,145.7,323.2,159.9,323.2"/>
			<path class="st24" d="M244.7,323.2c13.8-0.1,24.9,10.9,25,24.7c0.1,13.9-11,25.1-24.9,25.1c-13.7,0.1-25.1-11-25.3-24.5
				C219.3,334.7,230.7,323.2,244.7,323.2"/>
			<path class="st24" d="M366.7,159.7c-69.6,0-139.2,0-208.8,0c-2.2,0-3.7-0.5-5.2-2.3c-8.1-9.8-16.3-19.5-24.4-29.2
				c-2.1-2.5-4-5.6-6.2-8H85c32.3,45.8,64.6,91.7,96.9,137.5c1.3,1.8,2.6,2.3,4.7,2.3c26.5-0.1,53,0,79.5,0h4.2
				c-4.4,6.6-8.6,12.6-12.5,18.7c-1.4,2.2-2.9,2.9-5.5,2.9c-33.8-0.1-67.7,0-101.5-0.1c-2.3,0-4,0.7-5.6,2.3
				c-7.4,7.4-14.8,14.8-22.2,22.1c-1.3,1.3-2.8,2.4-4.2,3.7c0.2,0.2,0.4,0.5,0.6,0.7h1.6c48.9,0,97.7,0,146.6,0.1
				c2.3,0,3.4-1,4.5-2.7c24-35.8,48-71.5,72-107.3c9-13.4,18-26.8,27.3-40.7H366.7z"/>
			<path class="st25" d="M285.9,215.3c-4.9,4.9-9.4,9.2-13.8,13.6c-0.8,0.8-1.8,0.7-2.8,0.7c-20.2,0-40.4,0-60.6,0
				c-1,0-2,0.1-2.8-0.7c-4.4-4.4-8.9-8.8-13.8-13.6H285.9z"/>
			<path class="st26" d="M170.4,186.7h144c-4.8,4.8-9.2,9.3-13.7,13.7c-0.7,0.7-1.7,0.4-2.6,0.4c-37,0-74,0-111,0
				c-1.7,0-2.9-0.5-4.1-1.7C179,195.1,175,191.2,170.4,186.7"/>
		</g>
	</g>
</g>
</svg>
