<?xml version="1.0" encoding="utf-8"?>
<!-- Generator: Adobe Illustrator 25.2.1, SVG Export Plug-In . SVG Version: 6.00 Build 0)  -->
<svg version="1.1" id="Layer_1" xmlns:serif="http://www.serif.com/"
	 xmlns="http://www.w3.org/2000/svg" xmlns:xlink="http://www.w3.org/1999/xlink" x="0px" y="0px" viewBox="0 0 456 456"
	 style="enable-background:new 0 0 456 456;" xml:space="preserve">
<style type="text/css">
	.st0{fill:#512BD4;stroke:#FFFFFF;stroke-miterlimit:10;}
	.st1{fill:#FFFFFF;stroke:#FFFFFF;stroke-width:0.75;stroke-miterlimit:10;}
</style>
<image style="overflow:visible;enable-background:new    ;" width="512" height="512" xlink:href="../../../../../../OneDrive/Imágenes/tienda.png"  transform="matrix(0.5514 0 0 0.4706 86.8324 105)">
</image>
<ellipse class="st0" cx="278.9" cy="303.9" rx="37.4" ry="35.2"/>
<g>
	<path class="st1" d="M273.4,315.3c-1.4,0.6-4.2,1.2-7.8,1.2c-8.3,0-14.6-4.5-14.6-12.9c0-8,6.3-13.4,15.4-13.4c3.7,0,6,0.7,7,1.1
		l-0.9,2.7c-1.4-0.6-3.5-1.1-5.9-1.1c-6.9,0-11.5,3.8-11.5,10.5c0,6.2,4.2,10.3,11.3,10.3c2.3,0,4.7-0.4,6.2-1.1L273.4,315.3z"/>
	<path class="st1" d="M278.2,290.6h3.8v22.7h12.6v2.8h-16.4V290.6z"/>
	<path class="st1" d="M302.6,290.6v25.5h-3.8v-25.5H302.6z"/>
</g>
</svg>
